<mxfile host="app.diagrams.net" modified="2024-07-02T21:08:41.839Z" agent="Mozilla/5.0 (Windows NT 10.0; Win64; x64) AppleWebKit/537.36 (KHTML, like Gecko) Chrome/126.0.0.0 Safari/537.36" etag="n_uwIKMFlNJFdLNNFTm2" version="24.6.4" type="device">
  <diagram name="Strona-1" id="p_2Px62oqNShQ4Nu17ym">
    <mxGraphModel dx="928" dy="500" grid="1" gridSize="10" guides="1" tooltips="1" connect="1" arrows="1" fold="1" page="1" pageScale="1" pageWidth="827" pageHeight="1169" math="0" shadow="0">
      <root>
        <mxCell id="0" />
        <mxCell id="1" parent="0" />
        <mxCell id="UTtGNgi_6ueLPPKep8n_-2" value="Klient" style="shape=umlActor;verticalLabelPosition=bottom;verticalAlign=top;html=1;outlineConnect=0;" vertex="1" parent="1">
          <mxGeometry x="50" y="380" width="30" height="60" as="geometry" />
        </mxCell>
        <mxCell id="UTtGNgi_6ueLPPKep8n_-3" value="Administrator systemu" style="shape=umlActor;verticalLabelPosition=bottom;verticalAlign=top;html=1;outlineConnect=0;" vertex="1" parent="1">
          <mxGeometry x="50" y="790" width="30" height="60" as="geometry" />
        </mxCell>
        <mxCell id="UTtGNgi_6ueLPPKep8n_-6" value="Historia odebranych nagród" style="ellipse;whiteSpace=wrap;html=1;" vertex="1" parent="1">
          <mxGeometry x="320" y="580" width="120" height="80" as="geometry" />
        </mxCell>
        <mxCell id="UTtGNgi_6ueLPPKep8n_-7" value="Rejestracja" style="ellipse;whiteSpace=wrap;html=1;" vertex="1" parent="1">
          <mxGeometry x="320" y="40" width="120" height="80" as="geometry" />
        </mxCell>
        <mxCell id="UTtGNgi_6ueLPPKep8n_-8" value="Logowanie" style="ellipse;whiteSpace=wrap;html=1;" vertex="1" parent="1">
          <mxGeometry x="320" y="130" width="120" height="80" as="geometry" />
        </mxCell>
        <mxCell id="UTtGNgi_6ueLPPKep8n_-9" value="Wymiana punktów na nagrodę" style="ellipse;whiteSpace=wrap;html=1;" vertex="1" parent="1">
          <mxGeometry x="320" y="490" width="120" height="80" as="geometry" />
        </mxCell>
        <mxCell id="UTtGNgi_6ueLPPKep8n_-10" value="Naliczanie punktów" style="ellipse;whiteSpace=wrap;html=1;" vertex="1" parent="1">
          <mxGeometry x="320" y="220" width="120" height="80" as="geometry" />
        </mxCell>
        <mxCell id="UTtGNgi_6ueLPPKep8n_-11" value="Wyświetlanie ilości pun&lt;span style=&quot;background-color: initial;&quot;&gt;któw&lt;/span&gt;" style="ellipse;whiteSpace=wrap;html=1;" vertex="1" parent="1">
          <mxGeometry x="320" y="310" width="120" height="80" as="geometry" />
        </mxCell>
        <mxCell id="UTtGNgi_6ueLPPKep8n_-12" value="Przeglądanie nagród" style="ellipse;whiteSpace=wrap;html=1;" vertex="1" parent="1">
          <mxGeometry x="320" y="400" width="120" height="80" as="geometry" />
        </mxCell>
        <mxCell id="UTtGNgi_6ueLPPKep8n_-16" value="" style="endArrow=none;html=1;rounded=0;" edge="1" parent="1" source="UTtGNgi_6ueLPPKep8n_-3" target="UTtGNgi_6ueLPPKep8n_-25">
          <mxGeometry width="50" height="50" relative="1" as="geometry">
            <mxPoint x="70" y="390" as="sourcePoint" />
            <mxPoint x="120" y="340" as="targetPoint" />
          </mxGeometry>
        </mxCell>
        <mxCell id="UTtGNgi_6ueLPPKep8n_-17" value="" style="endArrow=none;html=1;rounded=0;" edge="1" parent="1" source="UTtGNgi_6ueLPPKep8n_-3" target="UTtGNgi_6ueLPPKep8n_-26">
          <mxGeometry width="50" height="50" relative="1" as="geometry">
            <mxPoint x="90" y="406" as="sourcePoint" />
            <mxPoint x="166" y="287" as="targetPoint" />
          </mxGeometry>
        </mxCell>
        <mxCell id="UTtGNgi_6ueLPPKep8n_-18" value="" style="endArrow=none;html=1;rounded=0;" edge="1" parent="1" source="UTtGNgi_6ueLPPKep8n_-2" target="UTtGNgi_6ueLPPKep8n_-10">
          <mxGeometry width="50" height="50" relative="1" as="geometry">
            <mxPoint x="100" y="416" as="sourcePoint" />
            <mxPoint x="176" y="297" as="targetPoint" />
          </mxGeometry>
        </mxCell>
        <mxCell id="UTtGNgi_6ueLPPKep8n_-19" value="" style="endArrow=none;html=1;rounded=0;" edge="1" parent="1" source="UTtGNgi_6ueLPPKep8n_-2" target="UTtGNgi_6ueLPPKep8n_-7">
          <mxGeometry width="50" height="50" relative="1" as="geometry">
            <mxPoint x="80" y="89" as="sourcePoint" />
            <mxPoint x="156" y="-30" as="targetPoint" />
          </mxGeometry>
        </mxCell>
        <mxCell id="UTtGNgi_6ueLPPKep8n_-20" value="" style="endArrow=none;html=1;rounded=0;" edge="1" parent="1" source="UTtGNgi_6ueLPPKep8n_-2" target="UTtGNgi_6ueLPPKep8n_-8">
          <mxGeometry width="50" height="50" relative="1" as="geometry">
            <mxPoint x="90" y="99" as="sourcePoint" />
            <mxPoint x="166" y="-20" as="targetPoint" />
          </mxGeometry>
        </mxCell>
        <mxCell id="UTtGNgi_6ueLPPKep8n_-21" value="" style="endArrow=none;html=1;rounded=0;" edge="1" parent="1" source="UTtGNgi_6ueLPPKep8n_-2" target="UTtGNgi_6ueLPPKep8n_-12">
          <mxGeometry width="50" height="50" relative="1" as="geometry">
            <mxPoint x="18" y="200" as="sourcePoint" />
            <mxPoint x="112" y="285" as="targetPoint" />
          </mxGeometry>
        </mxCell>
        <mxCell id="UTtGNgi_6ueLPPKep8n_-22" value="" style="endArrow=none;html=1;rounded=0;" edge="1" parent="1" source="UTtGNgi_6ueLPPKep8n_-2" target="UTtGNgi_6ueLPPKep8n_-9">
          <mxGeometry width="50" height="50" relative="1" as="geometry">
            <mxPoint x="30" y="250" as="sourcePoint" />
            <mxPoint x="124" y="335" as="targetPoint" />
          </mxGeometry>
        </mxCell>
        <mxCell id="UTtGNgi_6ueLPPKep8n_-23" value="" style="endArrow=none;html=1;rounded=0;" edge="1" parent="1" source="UTtGNgi_6ueLPPKep8n_-2" target="UTtGNgi_6ueLPPKep8n_-11">
          <mxGeometry width="50" height="50" relative="1" as="geometry">
            <mxPoint x="80" y="190" as="sourcePoint" />
            <mxPoint x="174" y="275" as="targetPoint" />
          </mxGeometry>
        </mxCell>
        <mxCell id="UTtGNgi_6ueLPPKep8n_-24" value="Historia wykonanych transakcji" style="ellipse;whiteSpace=wrap;html=1;" vertex="1" parent="1">
          <mxGeometry x="320" y="670" width="120" height="80" as="geometry" />
        </mxCell>
        <mxCell id="UTtGNgi_6ueLPPKep8n_-25" value="Zarządzanie kontem" style="ellipse;whiteSpace=wrap;html=1;" vertex="1" parent="1">
          <mxGeometry x="320" y="760" width="120" height="80" as="geometry" />
        </mxCell>
        <mxCell id="UTtGNgi_6ueLPPKep8n_-26" value="Dodawanie akcji promocyjnych i ofert specjalnych" style="ellipse;whiteSpace=wrap;html=1;" vertex="1" parent="1">
          <mxGeometry x="320" y="850" width="120" height="80" as="geometry" />
        </mxCell>
        <mxCell id="UTtGNgi_6ueLPPKep8n_-28" value="" style="endArrow=none;html=1;rounded=0;entryX=0.008;entryY=0.336;entryDx=0;entryDy=0;entryPerimeter=0;" edge="1" parent="1" source="UTtGNgi_6ueLPPKep8n_-2" target="UTtGNgi_6ueLPPKep8n_-6">
          <mxGeometry width="50" height="50" relative="1" as="geometry">
            <mxPoint x="90" y="388" as="sourcePoint" />
            <mxPoint x="342" y="516" as="targetPoint" />
          </mxGeometry>
        </mxCell>
        <mxCell id="UTtGNgi_6ueLPPKep8n_-29" value="" style="endArrow=none;html=1;rounded=0;entryX=0.024;entryY=0.324;entryDx=0;entryDy=0;entryPerimeter=0;" edge="1" parent="1" source="UTtGNgi_6ueLPPKep8n_-2" target="UTtGNgi_6ueLPPKep8n_-24">
          <mxGeometry width="50" height="50" relative="1" as="geometry">
            <mxPoint x="100" y="398" as="sourcePoint" />
            <mxPoint x="352" y="526" as="targetPoint" />
          </mxGeometry>
        </mxCell>
        <mxCell id="UTtGNgi_6ueLPPKep8n_-30" value="" style="endArrow=none;html=1;rounded=0;" edge="1" parent="1" source="UTtGNgi_6ueLPPKep8n_-2" target="UTtGNgi_6ueLPPKep8n_-25">
          <mxGeometry width="50" height="50" relative="1" as="geometry">
            <mxPoint x="90" y="399" as="sourcePoint" />
            <mxPoint x="333" y="706" as="targetPoint" />
          </mxGeometry>
        </mxCell>
        <mxCell id="UTtGNgi_6ueLPPKep8n_-31" value="Przypomnienie o wygaśnięciu punktów" style="ellipse;whiteSpace=wrap;html=1;" vertex="1" parent="1">
          <mxGeometry x="160" y="670" width="120" height="80" as="geometry" />
        </mxCell>
        <mxCell id="UTtGNgi_6ueLPPKep8n_-32" value="Poziomy lojalności (brązowy, srebrny, złoty)" style="ellipse;whiteSpace=wrap;html=1;" vertex="1" parent="1">
          <mxGeometry x="20" y="670" width="120" height="80" as="geometry" />
        </mxCell>
        <mxCell id="UTtGNgi_6ueLPPKep8n_-33" value="" style="endArrow=none;html=1;rounded=0;" edge="1" parent="1" source="UTtGNgi_6ueLPPKep8n_-2" target="UTtGNgi_6ueLPPKep8n_-31">
          <mxGeometry width="50" height="50" relative="1" as="geometry">
            <mxPoint x="90" y="439" as="sourcePoint" />
            <mxPoint x="362" y="775" as="targetPoint" />
          </mxGeometry>
        </mxCell>
        <mxCell id="UTtGNgi_6ueLPPKep8n_-34" value="" style="endArrow=none;html=1;rounded=0;" edge="1" parent="1" source="UTtGNgi_6ueLPPKep8n_-2" target="UTtGNgi_6ueLPPKep8n_-32">
          <mxGeometry width="50" height="50" relative="1" as="geometry">
            <mxPoint x="100" y="449" as="sourcePoint" />
            <mxPoint x="372" y="785" as="targetPoint" />
          </mxGeometry>
        </mxCell>
      </root>
    </mxGraphModel>
  </diagram>
</mxfile>
